<!-- Simplified static version of your logo -->
<svg xmlns="http://www.w3.org/2000/svg" viewBox="0 0 100 100">

  <!-- WHITE BACKGROUND BOX -->
  <!-- <rect x="0" y="0" width="100" height="100" rx="16" fill="#ffffff" /> -->

  <!-- CONNECTION LINES -->
  <line x1="50" y1="15" x2="30" y2="35" stroke="#C0C0C0" stroke-width="1"/>
  <line x1="50" y1="15" x2="70" y2="35" stroke="#C0C0C0" stroke-width="1"/>

  <line x1="30" y1="35" x2="70" y2="35" stroke="#C0C0C0" stroke-width="1"/>

  <line x1="30" y1="35" x2="25" y2="55" stroke="#C0C0C0" stroke-width="1"/>
  <line x1="70" y1="35" x2="75" y2="55" stroke="#C0C0C0" stroke-width="1"/>

  <line x1="25" y1="55" x2="50" y2="55" stroke="#C0C0C0" stroke-width="1"/>
  <line x1="50" y1="55" x2="75" y2="55" stroke="#C0C0C0" stroke-width="1"/>

  <line x1="25" y1="55" x2="30" y2="75" stroke="#C0C0C0" stroke-width="1"/>
  <line x1="75" y1="55" x2="70" y2="75" stroke="#C0C0C0" stroke-width="1"/>

  <line x1="30" y1="75" x2="70" y2="75" stroke="#C0C0C0" stroke-width="1"/>

  <!-- NODES -->

  <!-- TOP NODE (RED) -->
  <circle cx="50" cy="15" r="4" fill="#ff5c5c"/>

  <!-- REST (GRAY) -->
  <circle cx="30" cy="35" r="4" fill="#7B7B7A"/>
  <circle cx="70" cy="35" r="4" fill="#7B7B7A"/>

  <circle cx="25" cy="55" r="4" fill="#7B7B7A"/>
  <circle cx="50" cy="55" r="4" fill="#7B7B7A"/>
  <circle cx="75" cy="55" r="4" fill="#7B7B7A"/>

  <circle cx="30" cy="75" r="4" fill="#7B7B7A"/>
  <circle cx="70" cy="75" r="4" fill="#7B7B7A"/>

</svg>